<mxfile host="app.diagrams.net" modified="2024-04-21T07:35:46.225Z" agent="Mozilla/5.0 (Windows NT 10.0; Win64; x64) AppleWebKit/537.36 (KHTML, like Gecko) Chrome/123.0.0.0 Safari/537.36" etag="saPS3WkTjVM2IXVA56VV" version="24.2.2" type="device">
  <diagram name="Page-1" id="wXKJWHJHW1IuRwQWXABE">
    <mxGraphModel dx="1434" dy="746" grid="1" gridSize="10" guides="1" tooltips="1" connect="1" arrows="1" fold="1" page="1" pageScale="1" pageWidth="827" pageHeight="1169" math="0" shadow="0">
      <root>
        <mxCell id="0" />
        <mxCell id="1" parent="0" />
        <mxCell id="tWTz2Uvf0k5PPK2Pxos4-4" value="&lt;span style=&quot;border-color: var(--border-color);&quot;&gt;&lt;font style=&quot;border-color: var(--border-color); font-size: 14px;&quot;&gt;pc2&lt;/font&gt;&lt;/span&gt;" style="whiteSpace=wrap;html=1;aspect=fixed;strokeWidth=1;" parent="1" vertex="1">
          <mxGeometry x="462" y="630" width="80" height="80" as="geometry" />
        </mxCell>
        <mxCell id="tWTz2Uvf0k5PPK2Pxos4-5" value="&lt;span style=&quot;border-color: var(--border-color);&quot;&gt;&lt;font style=&quot;border-color: var(--border-color); font-size: 14px;&quot;&gt;pc1&lt;/font&gt;&lt;/span&gt;" style="whiteSpace=wrap;html=1;aspect=fixed;strokeWidth=1;" parent="1" vertex="1">
          <mxGeometry x="312" y="630" width="80" height="80" as="geometry" />
        </mxCell>
        <mxCell id="tWTz2Uvf0k5PPK2Pxos4-6" value="&lt;span style=&quot;border-color: var(--border-color);&quot;&gt;&lt;font style=&quot;border-color: var(--border-color); font-size: 14px;&quot;&gt;pc3&lt;/font&gt;&lt;/span&gt;" style="whiteSpace=wrap;html=1;aspect=fixed;strokeWidth=1;" parent="1" vertex="1">
          <mxGeometry x="622" y="630" width="80" height="80" as="geometry" />
        </mxCell>
        <mxCell id="tWTz2Uvf0k5PPK2Pxos4-8" value="" style="endArrow=none;html=1;rounded=0;entryX=0.25;entryY=1;entryDx=0;entryDy=0;strokeWidth=1;" parent="1" target="tWTz2Uvf0k5PPK2Pxos4-7" edge="1">
          <mxGeometry width="50" height="50" relative="1" as="geometry">
            <mxPoint x="342" y="630" as="sourcePoint" />
            <mxPoint x="392" y="580" as="targetPoint" />
          </mxGeometry>
        </mxCell>
        <mxCell id="tWTz2Uvf0k5PPK2Pxos4-9" value="" style="endArrow=none;html=1;rounded=0;exitX=0.5;exitY=0;exitDx=0;exitDy=0;entryX=0.75;entryY=1;entryDx=0;entryDy=0;strokeWidth=1;" parent="1" source="tWTz2Uvf0k5PPK2Pxos4-6" target="tWTz2Uvf0k5PPK2Pxos4-7" edge="1">
          <mxGeometry width="50" height="50" relative="1" as="geometry">
            <mxPoint x="572" y="620" as="sourcePoint" />
            <mxPoint x="622" y="570" as="targetPoint" />
          </mxGeometry>
        </mxCell>
        <mxCell id="tWTz2Uvf0k5PPK2Pxos4-10" value="" style="endArrow=none;html=1;rounded=0;exitX=0.5;exitY=0;exitDx=0;exitDy=0;entryX=0.5;entryY=1;entryDx=0;entryDy=0;strokeWidth=1;" parent="1" source="tWTz2Uvf0k5PPK2Pxos4-4" target="tWTz2Uvf0k5PPK2Pxos4-7" edge="1">
          <mxGeometry width="50" height="50" relative="1" as="geometry">
            <mxPoint x="467" y="610" as="sourcePoint" />
            <mxPoint x="512" y="560" as="targetPoint" />
          </mxGeometry>
        </mxCell>
        <mxCell id="tWTz2Uvf0k5PPK2Pxos4-12" value="&lt;font style=&quot;font-size: 14px;&quot;&gt;Network 11.95.0.0/24&lt;/font&gt;" style="text;html=1;strokeColor=none;fillColor=none;align=center;verticalAlign=middle;whiteSpace=wrap;rounded=0;strokeWidth=1;" parent="1" vertex="1">
          <mxGeometry x="412" y="430" width="180" height="30" as="geometry" />
        </mxCell>
        <mxCell id="tWTz2Uvf0k5PPK2Pxos4-31" value="&lt;span style=&quot;border-color: var(--border-color);&quot;&gt;&lt;font style=&quot;border-color: var(--border-color); font-size: 14px;&quot;&gt;pc4&lt;/font&gt;&lt;/span&gt;" style="whiteSpace=wrap;html=1;aspect=fixed;strokeWidth=1;" parent="1" vertex="1">
          <mxGeometry x="1008" y="321" width="80" height="80" as="geometry" />
        </mxCell>
        <mxCell id="tWTz2Uvf0k5PPK2Pxos4-32" value="&lt;span style=&quot;border-color: var(--border-color);&quot;&gt;&lt;font style=&quot;border-color: var(--border-color); font-size: 14px;&quot;&gt;pc5&lt;/font&gt;&lt;/span&gt;" style="whiteSpace=wrap;html=1;aspect=fixed;strokeWidth=1;" parent="1" vertex="1">
          <mxGeometry x="1308" y="321" width="80" height="80" as="geometry" />
        </mxCell>
        <mxCell id="tWTz2Uvf0k5PPK2Pxos4-34" value="" style="endArrow=none;html=1;rounded=0;entryX=0.25;entryY=0;entryDx=0;entryDy=0;strokeWidth=1;exitX=0.5;exitY=1;exitDx=0;exitDy=0;" parent="1" target="tWTz2Uvf0k5PPK2Pxos4-33" edge="1">
          <mxGeometry width="50" height="50" relative="1" as="geometry">
            <mxPoint x="1045" y="401.0000000000002" as="sourcePoint" />
            <mxPoint x="1122.5" y="581" as="targetPoint" />
          </mxGeometry>
        </mxCell>
        <mxCell id="tWTz2Uvf0k5PPK2Pxos4-37" value="&lt;font style=&quot;font-size: 14px;&quot;&gt;Network 87.91.0.0/24&lt;/font&gt;" style="text;html=1;strokeColor=none;fillColor=none;align=center;verticalAlign=middle;whiteSpace=wrap;rounded=0;strokeWidth=1;" parent="1" vertex="1">
          <mxGeometry x="1132.5" y="580" width="180" height="30" as="geometry" />
        </mxCell>
        <mxCell id="tWTz2Uvf0k5PPK2Pxos4-38" value="" style="endArrow=none;html=1;rounded=0;exitX=1;exitY=0.5;exitDx=0;exitDy=0;strokeWidth=1;" parent="1" edge="1">
          <mxGeometry width="50" height="50" relative="1" as="geometry">
            <mxPoint x="580" y="515" as="sourcePoint" />
            <mxPoint x="1147.5" y="515.8631178707224" as="targetPoint" />
          </mxGeometry>
        </mxCell>
        <mxCell id="tWTz2Uvf0k5PPK2Pxos4-40" value="" style="shape=sumEllipse;perimeter=ellipsePerimeter;whiteSpace=wrap;html=1;backgroundOutline=1;strokeWidth=1;" parent="1" vertex="1">
          <mxGeometry x="696.5" y="474" width="100" height="85" as="geometry" />
        </mxCell>
        <mxCell id="tWTz2Uvf0k5PPK2Pxos4-41" value="&lt;font style=&quot;font-size: 14px;&quot;&gt;p1&lt;/font&gt;" style="text;html=1;strokeColor=none;fillColor=none;align=center;verticalAlign=middle;whiteSpace=wrap;rounded=0;strokeWidth=1;" parent="1" vertex="1">
          <mxGeometry x="692" y="500" width="60" height="30" as="geometry" />
        </mxCell>
        <mxCell id="tWTz2Uvf0k5PPK2Pxos4-42" value="&lt;font style=&quot;font-size: 14px;&quot;&gt;p2&lt;/font&gt;" style="text;html=1;strokeColor=none;fillColor=none;align=center;verticalAlign=middle;whiteSpace=wrap;rounded=0;strokeWidth=1;" parent="1" vertex="1">
          <mxGeometry x="742" y="500" width="60" height="30" as="geometry" />
        </mxCell>
        <mxCell id="tWTz2Uvf0k5PPK2Pxos4-43" value="" style="shape=sumEllipse;perimeter=ellipsePerimeter;whiteSpace=wrap;html=1;backgroundOutline=1;strokeWidth=1;" parent="1" vertex="1">
          <mxGeometry x="926" y="475" width="100" height="80" as="geometry" />
        </mxCell>
        <mxCell id="tWTz2Uvf0k5PPK2Pxos4-45" value="&lt;font style=&quot;font-size: 14px;&quot;&gt;p1&lt;/font&gt;" style="text;html=1;strokeColor=none;fillColor=none;align=center;verticalAlign=middle;whiteSpace=wrap;rounded=0;strokeWidth=1;" parent="1" vertex="1">
          <mxGeometry x="918" y="498" width="60" height="30" as="geometry" />
        </mxCell>
        <mxCell id="tWTz2Uvf0k5PPK2Pxos4-46" value="&lt;font style=&quot;font-size: 14px;&quot;&gt;p2&lt;/font&gt;" style="text;html=1;strokeColor=none;fillColor=none;align=center;verticalAlign=middle;whiteSpace=wrap;rounded=0;strokeWidth=1;" parent="1" vertex="1">
          <mxGeometry x="972" y="500" width="60" height="30" as="geometry" />
        </mxCell>
        <mxCell id="tWTz2Uvf0k5PPK2Pxos4-48" value="&lt;font style=&quot;font-size: 14px;&quot;&gt;1 G/S point-to-point WAN link&lt;/font&gt;" style="rounded=0;whiteSpace=wrap;html=1;strokeWidth=1;" parent="1" vertex="1">
          <mxGeometry x="732" y="321" width="228" height="60" as="geometry" />
        </mxCell>
        <mxCell id="tWTz2Uvf0k5PPK2Pxos4-51" value="&lt;span style=&quot;border-color: var(--border-color);&quot;&gt;&lt;font style=&quot;font-size: 14px;&quot;&gt;Network 10.0.0.0/24&lt;/font&gt;&lt;/span&gt;" style="rounded=0;whiteSpace=wrap;html=1;strokeWidth=1;" parent="1" vertex="1">
          <mxGeometry x="754" y="700" width="218" height="40" as="geometry" />
        </mxCell>
        <mxCell id="tWTz2Uvf0k5PPK2Pxos4-52" value="&lt;font style=&quot;font-size: 14px;&quot;&gt;r1&lt;/font&gt;" style="whiteSpace=wrap;html=1;aspect=fixed;strokeWidth=1;" parent="1" vertex="1">
          <mxGeometry x="648.5" y="550" width="50" height="50" as="geometry" />
        </mxCell>
        <mxCell id="tWTz2Uvf0k5PPK2Pxos4-53" value="&lt;font style=&quot;font-size: 14px;&quot;&gt;r2&lt;/font&gt;" style="whiteSpace=wrap;html=1;aspect=fixed;strokeWidth=1;" parent="1" vertex="1">
          <mxGeometry x="1026" y="550" width="50" height="50" as="geometry" />
        </mxCell>
        <mxCell id="pTM8qVdwW19JlUxaHYQg-1" value="" style="endArrow=none;html=1;rounded=0;entryX=0.5;entryY=1;entryDx=0;entryDy=0;strokeWidth=1;exitX=0.5;exitY=1;exitDx=0;exitDy=0;" parent="1" edge="1">
          <mxGeometry width="50" height="50" relative="1" as="geometry">
            <mxPoint x="1252" y="471" as="sourcePoint" />
            <mxPoint x="1345" y="401.0000000000002" as="targetPoint" />
          </mxGeometry>
        </mxCell>
        <mxCell id="tWTz2Uvf0k5PPK2Pxos4-7" value="&lt;font style=&quot;font-size: 14px;&quot;&gt;8-Port Ethernet Switches&lt;/font&gt;" style="rounded=0;whiteSpace=wrap;html=1;strokeWidth=1;" parent="1" vertex="1">
          <mxGeometry x="412" y="470" width="180" height="90" as="geometry" />
        </mxCell>
        <mxCell id="tWTz2Uvf0k5PPK2Pxos4-33" value="&lt;font style=&quot;font-size: 14px;&quot;&gt;8-Port Ethernet Switches&lt;/font&gt;" style="rounded=0;whiteSpace=wrap;html=1;strokeWidth=1;" parent="1" vertex="1">
          <mxGeometry x="1136.5" y="471" width="180" height="90" as="geometry" />
        </mxCell>
      </root>
    </mxGraphModel>
  </diagram>
</mxfile>
